Coordinates
version=1
nRows=38
nColumns=12
inDegrees=yes

Units are S.I. units (second, meters, Newtons, ...)
Angles are in degrees

endheader
time	SC_y	SC_z	SC_x	AC_y	AC_z	AC_x	GH_y	GH_z	GH_yy	EL_x	PS_y
       0.0              -14.47         -1.668          7.796          31.08         -6.609          8.017          13.71          59.35           70.0           44.7          147.7
   0.04368              -14.48         -1.667          7.807          31.08         -6.609          8.017          13.71          59.34          69.97           44.7          147.7
   0.08736              -14.49         -1.665          7.817          31.08         -6.609          8.017          13.71          59.33          69.94           44.7          147.7
     0.131              -14.49         -1.663          7.829          31.08          -6.61          8.017          13.72          59.32          69.91          44.71          147.7
    0.1747               -14.5         -1.661          7.841          31.08          -6.61          8.017          13.72          59.31          69.88          44.71          147.6
    0.2184              -14.51         -1.659          7.854          31.09         -6.611          8.017          13.72           59.3          69.84          44.72          147.6
    0.2621              -14.51         -1.657          7.868          31.09         -6.611          8.018          13.72          59.29           69.8          44.73          147.6
    0.3058              -14.52         -1.655          7.883          31.09         -6.612          8.018          13.72          59.27          69.76          44.73          147.6
    0.3494              -14.53         -1.653          7.899          31.09         -6.613          8.018          13.72          59.26          69.72          44.74          147.5
    0.3931              -14.54          -1.65          7.916          31.09         -6.613          8.018          13.72          59.24          69.67          44.75          147.5
    0.4368              -14.55         -1.647          7.934           31.1         -6.614          8.019          13.72          59.22          69.62          44.75          147.5
    0.4805              -14.56         -1.644          7.954           31.1         -6.615          8.019          13.72          59.21          69.57          44.76          147.4
    0.5242              -14.57         -1.641          7.975           31.1         -6.616          8.019          13.72          59.19          69.51          44.77          147.4
    0.5679              -14.58         -1.637          7.998          31.11         -6.617           8.02          13.72          59.17          69.45          44.78          147.3
    0.6115               -14.6         -1.633          8.023          31.11         -6.618           8.02          13.73          59.14          69.38          44.79          147.3
    0.6552              -14.61         -1.629           8.05          31.11         -6.619           8.02          13.73          59.12          69.31           44.8          147.2
    0.6989              -14.63         -1.625          8.079          31.12          -6.62          8.021          13.73          59.09          69.23          44.81          147.2
    0.7426              -14.64          -1.62          8.111          31.12         -6.621          8.021          13.73          59.06          69.15          44.83          147.1
    0.7863              -14.66         -1.614          8.146          31.13         -6.623          8.022          13.73          59.03          69.05          44.84          147.1
    0.8299              -14.68         -1.609          8.184          31.13         -6.624          8.022          13.73          58.99          68.95          44.86          147.0
    0.8736              -14.71         -1.602          8.226          31.14         -6.626          8.023          13.74          58.95          68.84          44.88          146.9
    0.9173              -14.73         -1.595          8.272          31.14         -6.628          8.023          13.74          58.91          68.71           44.9          146.8
     0.961              -14.76         -1.587          8.323          31.15          -6.63          8.024          13.74          58.86          68.58          44.92          146.7
     1.005              -14.79         -1.578           8.38          31.16         -6.632          8.025          13.75          58.81          68.42          44.94          146.6
     1.048              -14.82         -1.569          8.443          31.17         -6.635          8.026          13.75          58.75          68.25          44.97          146.5
     1.092              -14.86         -1.558          8.513          31.18         -6.638          8.027          13.75          58.69          68.07           45.0          146.3
     1.136              -14.91         -1.546          8.591          31.19         -6.641          8.028          13.76          58.62          67.85          45.03          146.2
     1.179              -14.95         -1.532          8.679           31.2         -6.644          8.029          13.76          58.53          67.62          45.07          146.0
     1.223              -15.01         -1.517          8.779          31.21         -6.648          8.031          13.77          58.44          67.35          45.11          145.8
     1.267              -15.07         -1.499          8.892          31.23         -6.653          8.033          13.77          58.34          67.04          45.16          145.6
      1.31              -15.14         -1.479          9.022          31.25         -6.658          8.034          13.78          58.22          66.69          45.21          145.4
     1.354              -15.22         -1.457           9.17          31.27         -6.664          8.037          13.79          58.08          66.29          45.27          145.1
     1.398              -15.31          -1.43          9.341          31.29         -6.671          8.039           13.8          57.92          65.83          45.35          144.7
     1.441              -15.42           -1.4           9.54          31.32         -6.679          8.042          13.81          57.74           65.3          45.43          144.3
     1.485              -15.55         -1.364          9.773          31.35         -6.689          8.045          13.82          57.52          64.67          45.53          143.9
     1.529               -15.7         -1.321          10.05          31.39           -6.7          8.049          13.84          57.27          63.93          45.64          143.4
     1.573              -15.87         -1.271          10.37          31.43         -6.713          8.054          13.85          56.97          63.05          45.78          142.7
     1.616              -16.09         -1.211          10.76          31.49         -6.729           8.06          13.88           56.6           62.0          45.95          142.0
